<?xml version="1.0" encoding="utf-8"?>
<!-- Generator: Adobe Illustrator 26.0.3, SVG Export Plug-In . SVG Version: 6.00 Build 0)  -->
<svg version="1.1" id="Capa_1" xmlns="http://www.w3.org/2000/svg" xmlns:xlink="http://www.w3.org/1999/xlink" x="0px" y="0px"
	 viewBox="0 0 896.72 221.25" style="enable-background:new 0 0 896.72 221.25;" xml:space="preserve">
<style type="text/css">
	.st0{fill:#FFFFFF;}
</style>
<g>
	<g>
		<path class="st0" d="M90.64,128.35c0.63,21.28,18.76,31.52,33.1,31.37c13.08,0,23.64-6.46,29.16-17.5h12.14
			c-3.94,9.14-9.93,16.08-17.18,20.65c-7.09,4.57-15.45,6.94-24.12,6.94c-29.48,0-44.77-23.49-44.77-44.61
			c0-24.9,19.23-44.92,44.61-44.92c11.98,0,23.01,4.26,31.05,11.98c9.77,9.46,14.5,22.54,13.24,36.1H90.64z M156.37,119.05
			c-0.79-14.82-15.13-29.32-32.63-28.85c-18.28,0-31.84,13.4-32.94,28.85H156.37z"/>
		<path class="st0" d="M217.06,167.44h-12.14l-33.42-84.8h5.44c4.13,0,7.84,2.54,9.33,6.39l24.8,64.07l24.65-64.05
			c1.49-3.86,5.2-6.41,9.33-6.41h5.43L217.06,167.44z"/>
		<path class="st0" d="M264.5,128.35c0.63,21.28,18.76,31.52,33.1,31.37c13.08,0,23.64-6.46,29.16-17.5h12.14
			c-3.94,9.14-9.93,16.08-17.18,20.65c-7.09,4.57-15.45,6.94-24.12,6.94c-29.48,0-44.77-23.49-44.77-44.61
			c0-24.9,19.23-44.92,44.61-44.92c11.98,0,23.01,4.26,31.05,11.98c9.77,9.46,14.5,22.54,13.24,36.1H264.5z M330.23,119.05
			c-0.79-14.82-15.13-29.32-32.63-28.85c-18.28,0-31.84,13.4-32.94,28.85H330.23z"/>
		<path class="st0" d="M358.29,82.64h11.03v13.87c6.15-12.61,17.18-15.92,27.11-16.23v11.51h-1.1c-16.39,0-25.53,10.25-25.53,29.48
			v36.18c0,5.52-4.48,10-10,10h-1.51V82.64z"/>
		<path class="st0" d="M496.37,157.19c0,14.19-2.68,23.33-8.04,30.58c-7.41,9.93-21.91,17.81-39.72,17.81
			c-26.95,0-39.88-16.08-43.03-29.48h23.96c1.89,3.94,5.2,6.94,8.98,8.83c4.26,2.36,8.83,3,11.35,3c12.29,0,25.69-8.51,25.69-26.01
			v-7.25c-4.26,7.72-13.4,15.45-28.06,15.45c-24.9,0-44.13-18.92-44.13-45.55c0-28.21,20.18-46.18,44.13-46.18
			c12.45,0,23.17,5.67,28.06,14.19v0c0-6.44,5.22-11.66,11.66-11.66h9.14V157.19z M424.02,124.09c0,15.13,10.88,26.64,25.85,26.64
			c7.72,0,13.87-2.68,18.44-7.41c4.57-4.57,7.25-11.03,7.41-18.44c0-6.62-2.05-13.56-6.3-18.6c-4.1-5.2-10.56-8.67-19.55-8.67
			c-14.03,0-25.85,10.88-25.85,26.32V124.09z"/>
		<path class="st0" d="M516.24,80.9h8.2c6.27,0,11.35,5.08,11.35,11.35v0c3.78-7.72,10.88-13.87,23.96-14.03v20.81h-0.95
			c-14.5,0-21.91,6.78-21.91,21.75v31.66c0,8.28-6.72,15-15,15h-5.65V80.9z"/>
		<path class="st0" d="M582.76,131.03c0.95,13.87,13.24,21.59,25.06,21.44c10.09,0,16.87-4.57,20.81-11.66h21.28
			c-4.1,9.61-10.25,16.87-17.5,21.75c-7.25,5.04-15.76,7.57-24.75,7.57c-26.64,0-45.71-21.59-45.71-45.71
			c0-24.59,19.23-46.18,45.4-46.18c12.93,0,24.27,4.89,32.31,13.24c10.56,10.88,14.5,24.43,12.77,39.56H582.76z M632.09,115.27
			c-0.79-8.2-9.46-19.7-24.59-19.55c-15.29,0-23.64,11.03-24.43,19.55H632.09z"/>
		<path class="st0" d="M683.48,131.03c0.95,13.87,13.24,21.59,25.06,21.44c10.09,0,16.87-4.57,20.81-11.66h21.28
			c-4.1,9.61-10.25,16.87-17.5,21.75c-7.25,5.04-15.76,7.57-24.75,7.57c-26.64,0-45.71-21.59-45.71-45.71
			c0-24.59,19.23-46.18,45.4-46.18c12.93,0,24.27,4.89,32.31,13.24c10.56,10.88,14.5,24.43,12.77,39.56H683.48z M732.82,115.27
			c-0.79-8.2-9.46-19.7-24.59-19.55c-15.29,0-23.64,11.03-24.43,19.55H732.82z"/>
		<path class="st0" d="M765.91,80.9h8.23c6.23,0,11.24,5.16,11.01,11.38l0,0.12c3.78-6.78,11.51-14.34,26.95-14.19
			c28.21,0.16,33.57,21.75,33.57,37.04v52.17h-9.63c-6.08,0-11.01-4.93-11.01-11.01v-35.96c0-12.93-4.26-22.86-18.76-22.86
			c-14.66,0.16-19.7,9.93-19.7,22.07v36.75c0,6.08-4.93,11.01-11.01,11.01h-9.63V80.9z"/>
	</g>
	<g>
		<g>
			<path class="st0" d="M549.28,197.18c-0.19-1.54-1.08-2.58-2.73-2.58c-1.54,0-2.5,1.04-2.5,2.27c0,1.81,1.85,2.35,3.97,3
				c3,0.92,5.78,2.73,5.78,6.7c0,4.12-3,6.82-7.16,6.82c-3.85,0-7.55-2.62-7.55-7.55h4c0.19,2.58,1.5,3.89,3.62,3.89
				c1.85,0,3.08-1.19,3.08-2.93c0-1.46-1.12-2.43-3.62-3.23c-5.24-1.66-6.12-3.93-6.12-6.36c0-3.77,3.2-6.28,6.7-6.28
				c3.54,0,6.43,2.46,6.55,6.24H549.28z"/>
			<path class="st0" d="M575.01,212.85v-11.59c0-4.58-1.77-6.66-5.31-6.66c-3.5,0-5.62,2.54-5.62,6.7v11.55h-4.01v-28.5h4.01v9.44
				h0.08c1.27-1.89,3.31-2.85,5.97-2.85c5.08,0,8.9,3.24,8.9,9.09v12.83H575.01z"/>
			<path class="st0" d="M597.2,213.39c-6.01,0-11.36-5.12-11.36-11.13c0-6.51,5.12-11.32,11.67-11.32c5.89,0,11.44,4.62,11.36,11.4
				C608.79,208.04,604.01,213.39,597.2,213.39z M597.31,194.6c-4.01,0-7.47,3.39-7.47,7.55c0,4.04,3.35,7.59,7.39,7.59
				c4.2,0,7.63-3.31,7.63-7.63C604.86,197.95,601.51,194.6,597.31,194.6z"/>
			<path class="st0" d="M615.84,219.98v-28.46h3.66v3.27h0.08c1.81-2.58,4.54-3.85,7.59-3.85c6.35,0,11.05,4.93,11.05,11.52
				c0,6.01-4.66,10.94-10.78,10.94c-3.23,0-6.12-1.31-7.51-3.62h-0.08v10.21H615.84z M634.21,202.22c0-3.89-3.08-7.62-7.36-7.62
				c-4.01,0-7.09,3.58-7.09,7.55c0,4.16,3.08,7.59,7.24,7.59C631.13,209.73,634.21,206.3,634.21,202.22z"/>
			<path class="st0" d="M669.65,213.39c-6.01,0-11.36-5.12-11.36-11.13c0-6.51,5.12-11.32,11.67-11.32c5.89,0,11.44,4.62,11.36,11.4
				C681.24,208.04,676.47,213.39,669.65,213.39z M669.77,194.6c-4.01,0-7.47,3.39-7.47,7.55c0,4.04,3.35,7.59,7.39,7.59
				c4.2,0,7.63-3.31,7.63-7.63C677.32,197.95,673.96,194.6,669.77,194.6z"/>
			<path class="st0" d="M688.3,212.85v-21.34h3.74v1.92h0.08c0.96-1.42,2.62-2.35,5.43-2.5v4.12c-3.47,0.12-5.24,2.23-5.24,5.82
				v11.98H688.3z"/>
			<path class="st0" d="M720.84,210.04c-1.66,2.23-4.31,3.35-7.36,3.35c-6.12,0-11.4-5.28-11.4-11.05c0-6.43,5.01-11.4,11.44-11.4
				c2.77,0,5.7,1.16,7.39,3.04v-2.46h4.01v18.52c0,6.93-4.27,11.21-11.52,11.21c-4.89,0-8.74-2.58-10.55-6.74h4.47
				c1.5,2.12,3.5,3.08,6.12,3.08c4.89,0,7.47-2.66,7.47-7.55H720.84z M720.92,202.18c0-5.01-3.81-7.59-7.51-7.59
				c-3.97,0-7.32,3.43-7.32,7.59c0,4.08,3.39,7.55,7.36,7.55C718.11,209.73,720.92,205.65,720.92,202.18z"/>
			<path class="st0" d="M749.89,212.85v-3.31h-0.08c-1.5,2.54-4.2,3.85-7.24,3.85c-6.24,0-11.32-4.7-11.32-10.86
				c0-6.82,4.89-11.59,11.17-11.59c3.12,0,5.74,1.16,7.39,3.58h0.08v-3h4.01v21.34H749.89z M749.96,202.22c0-4.16-3-7.62-7.43-7.62
				c-4.01,0-7.28,3.43-7.28,7.62c0,4.01,3.27,7.51,7.28,7.51C746.69,209.73,749.96,206.26,749.96,202.22z M740.37,189.32l-1.62-2.89
				l8.59-4.93l1.7,3.12L740.37,189.32z"/>
			<path class="st0" d="M776.85,212.85v-11.63c0-4.51-1.77-6.62-5.32-6.62c-3.5,0-5.62,2.58-5.62,6.58v11.67h-4v-21.34h3.74v2.27
				h0.08c1.58-2.04,3.77-2.85,6.24-2.85c5.12,0,8.9,3.24,8.9,9.13v12.79H776.85z"/>
			<path class="st0" d="M788.87,189.05v-4.7h4.01v4.7H788.87z M788.87,212.85v-21.34h4.01v21.34H788.87z"/>
			<path class="st0" d="M821.27,205.8c-1.69,4.81-5.78,7.59-10.51,7.59c-6.12,0-10.94-4.93-10.94-11.01
				c0-6.43,4.66-11.44,10.9-11.44c4.85,0,9.28,3.04,10.55,7.66h-4.43c-1.19-2.5-3.12-4-6.01-4c-4.2,0-7.01,3.2-7.01,7.55
				c0,4.24,2.89,7.59,6.93,7.59c2.73,0,4.93-1.46,6.05-3.93H821.27z"/>
			<path class="st0" d="M838.22,213.39c-6.01,0-11.36-5.12-11.36-11.13c0-6.51,5.12-11.32,11.67-11.32c5.89,0,11.44,4.62,11.36,11.4
				C849.81,208.04,845.03,213.39,838.22,213.39z M838.33,194.6c-4.01,0-7.47,3.39-7.47,7.55c0,4.04,3.35,7.59,7.39,7.59
				c4.2,0,7.63-3.31,7.63-7.63C845.88,197.95,842.53,194.6,838.33,194.6z"/>
		</g>
	</g>
	<path class="st0" d="M180.68,46.99c-2.83,10.58-13.65,16.87-24.2,14.19c2.65-3.17,10.64-14.66,9.33-36.48
		c0,0,0.59,16.04-16.18,33.24c-6.47-4.73-9.74-13.09-7.54-21.29c3.63-13.57,28.7-29.92,28.7-29.92S184.31,33.42,180.68,46.99z"/>
	<path class="st0" d="M29.92,99.08c10.58-2.84,21.43,3.38,24.39,13.86c-4.07-0.71-18.02-1.88-36.26,10.16c0,0,13.6-8.53,36.88-2.61
		c-0.86,7.97-6.46,14.98-14.67,17.18C26.7,141.31,0,127.78,0,127.78S16.35,102.71,29.92,99.08z"/>
	<path class="st0" d="M57.24,45.17c8.68,3.93,12.39,14.02,8.41,22.61c-2.32-2.7-10.96-11.15-30-13.16c0,0,13.94,1.8,26.11,18.53
		c-5.11,4.82-12.84,6.4-19.57,3.36c-11.13-5.04-21.26-28.69-21.26-28.69S46.11,40.13,57.24,45.17z"/>
	<path class="st0" d="M121.85,24.48c4.63,9.93,0.39,21.69-9.42,26.43c-0.01-4.13-1.27-18.07-16.3-33.94c0,0,10.76,11.91,8.97,35.87
		c-8,0.53-15.87-3.76-19.47-11.46C79.69,28.64,88.38,0,88.38,0S115.91,11.75,121.85,24.48z"/>
	<g>
		<path class="st0" d="M883.7,143.72c7.25,0,13.02,6.08,13.02,13.19c0,7.28-5.91,13.19-13.12,13.19c-7.25,0-13.16-5.94-13.16-13.19
			c0-7.08,5.7-13.19,13.22-13.19H883.7z M883.6,146.03c-5.99,0-10.63,4.93-10.63,10.88c0,6.02,4.82,10.88,10.63,10.88
			c5.81,0,10.59-4.78,10.59-10.88c0-5.85-4.57-10.88-10.56-10.88H883.6z M884.12,150.03c2.59,0,4.94,1.08,4.94,3.8
			c0,1.11-0.38,2.44-2.18,3.26c0.98,0.41,1.8,1.08,1.93,3.13c0.16,2.34,0.16,2.6,0.41,3.29h-3.26c-0.25-0.47-0.38-2.78-0.44-3.23
			c-0.09-0.76-0.28-1.96-2.41-1.96h-1.33v5.19h-3.35v-13.48H884.12z M881.78,152.34v3.8h1.61c0.7,0,2.31,0,2.31-2.06
			c0-1.71-1.42-1.74-2.12-1.74H881.78z"/>
	</g>
</g>
</svg>
